<?xml version="1.0" encoding="UTF-8"?>
<svg version="1.1" xmlns="http://www.w3.org/2000/svg" width="510" height="489">
<path d="M0 0 C5.08081013 0.66615066 7.00565006 4.18364261 9.96875 8.03125 C19.68634804 22.23389329 24.09183263 37.80027131 21.3828125 54.89453125 C18.82287824 67.41905522 13.1023384 78.8976616 4 88 C3.34 88 2.68 88 2 88 C2 88.66 2 89.32 2 90 C-0.41516227 91.52326859 -2.83169787 93.04422731 -5.25 94.5625 C-5.97856201 95.01995605 -6.70712402 95.47741211 -7.45776367 95.94873047 C-11.69570566 98.59738611 -15.96593625 101.15679318 -20.3125 103.625 C-37.70025944 113.69904787 -49.72638926 125.20367661 -55 145 C-59.29413236 165.36158126 -54.39271353 187.02843858 -43.8125 204.6875 C-38.33123639 212.78455102 -31.42301727 219.60815268 -24.51171875 226.46875 C-23.73618652 227.23880371 -22.9606543 228.00885742 -22.16162109 228.80224609 C-20.60924423 230.33719865 -19.05105719 231.86629967 -17.48681641 233.38916016 C-16.7757373 234.08831543 -16.0646582 234.7874707 -15.33203125 235.5078125 C-14.68983643 236.13316895 -14.0476416 236.75852539 -13.38598633 237.40283203 C-12 239 -12 239 -12 241 C-11.34 241 -10.68 241 -10 241 C-0.61627045 256.06746123 3.79214183 270.24980064 -0.125 288.25 C-3.87172492 301.19007772 -12.6515885 313.51722746 -24 321 C-26.19921875 321.65234375 -26.19921875 321.65234375 -28 322 C-28.33 321.34 -28.66 320.68 -29 320 C-28.50628906 319.04738281 -28.01257813 318.09476562 -27.50390625 317.11328125 C-26.85644963 315.84651829 -26.20933206 314.57958199 -25.5625 313.3125 C-25.07426758 312.37374023 -25.07426758 312.37374023 -24.57617188 311.41601562 C-19.67228315 301.75990484 -19.40430974 290.07485278 -22.5625 279.75 C-24.5585269 274.4320655 -27.39204702 269.84346125 -30.609375 265.1796875 C-32 263 -32 263 -32 261 C-32.66 261 -33.32 261 -34 261 C-34 260.34 -34 259.68 -34 259 C-34.66 259 -35.32 259 -36 259 C-36 258.34 -36 257.68 -36 257 C-36.66 257 -37.32 257 -38 257 C-38 256.34 -38 255.68 -38 255 C-38.66 255 -39.32 255 -40 255 C-40 254.34 -40 253.68 -40 253 C-40.87833496 252.60059204 -40.87833496 252.60059204 -41.77441406 252.19311523 C-52.30274956 246.54897574 -61.73116455 234.96897734 -68 225 C-68.54914063 224.15953125 -69.09828125 223.3190625 -69.6640625 222.453125 C-80.2722672 205.62631755 -82.71200281 186.18355335 -79.3828125 166.6328125 C-76.60918432 155.21920982 -71.21798545 143.95652499 -65 134 C-89.40467916 147.27966325 -106.3018317 164.86419696 -114.80859375 191.53515625 C-118.0919393 204.73646972 -116.18634596 218.36596436 -112.875 231.3046875 C-112 235 -112 235 -112 239 C-112.99 239 -113.98 239 -115 239 C-115 238.34 -115 237.68 -115 237 C-115.66 237 -116.32 237 -117 237 C-118.00842453 235.56839732 -119.00647891 234.12948547 -120 232.6875 C-120.556875 231.88699219 -121.11375 231.08648437 -121.6875 230.26171875 C-123 228 -123 228 -123 225 C-123.66 225 -124.32 225 -125 225 C-136.14195083 204.41984326 -141.05205659 183.22338084 -135.5 159.875 C-131.34279817 147.06790102 -125.16752769 135.89460747 -116 126 C-114.97132813 124.85144531 -114.97132813 124.85144531 -113.921875 123.6796875 C-99.76357846 108.62994266 -80.52493486 99.45642872 -61.75756836 91.49365234 C-54.33366741 88.33619785 -47.1663215 84.69824321 -40 81 C-38.44925781 80.21109375 -38.44925781 80.21109375 -36.8671875 79.40625 C-31.36226625 76.52345002 -26.54963476 73.3072898 -21.77734375 69.3203125 C-20 68 -20 68 -18 68 C-18 67.34 -18 66.68 -18 66 C-16.85935642 64.85935642 -15.71550648 63.72179525 -14.55859375 62.59765625 C-3.09580847 50.84758312 1.96384919 36.28050669 2.3125 19.9375 C2.13847449 13.22377891 1.09623258 6.61654663 0 0 Z " fill="#FAFAFA" transform="translate(293,87)"/>
<path d="M0 0 C5.55252101 0.61694678 8.58397069 5.35872432 11.875 9.4375 C25.28524347 27.71156234 26.23667161 47.19245181 24 69 C28.95 68.01 28.95 68.01 34 67 C34.33 67.66 34.66 68.32 35 69 C29.85714286 74.57142857 29.85714286 74.57142857 26 75 C27.43047367 79.52294275 29.96237957 82.45798494 33.1875 85.8125 C34.17714627 86.87624353 35.16672954 87.94004568 36.15625 89.00390625 C37.83999731 90.79148464 39.54271995 92.54179064 41.28125 94.27734375 C44.52469474 97.63377734 46.40392923 99.69937932 46.4375 104.5 C46.293125 105.655 46.14875 106.81 46 108 C45.34 108 44.68 108 44 108 C44 108.66 44 109.32 44 110 C43.43410156 110.31453125 42.86820312 110.6290625 42.28515625 110.953125 C41.55167969 111.38109375 40.81820312 111.8090625 40.0625 112.25 C39.33160156 112.66765625 38.60070312 113.0853125 37.84765625 113.515625 C35.88308601 114.86359774 35.88308601 114.86359774 35.12109375 116.95703125 C34.94224272 119.97442121 36.58463329 121.77746523 38.140625 124.25 C39 126 39 126 38.75 128.9375 C38.5025 129.618125 38.255 130.29875 38 131 C36.35 131.66 34.7 132.32 33 133 C33.495 133.556875 33.99 134.11375 34.5 134.6875 C36.30684791 137.4730572 36.57035173 138.74084723 36 142 C34.125 144.3125 34.125 144.3125 32 146 C31.34 146 30.68 146 30 146 C30.09539062 147.08539063 30.19078125 148.17078125 30.2890625 149.2890625 C30.40168039 150.73432537 30.51362382 152.17964091 30.625 153.625 C30.68945312 154.33785156 30.75390625 155.05070313 30.8203125 155.78515625 C31.20032796 160.96286683 30.93170424 165.42439435 27.6875 169.75 C20.65235709 174.96121697 10.58498792 173.56580702 2.328125 172.546875 C0.002569 172.18512184 -2.32295241 171.82314624 -4.6484375 171.4609375 C-13.46177534 170.24884675 -21.32120277 170.00061287 -29 175 C-35.23472076 181.07064916 -36.45333613 188.13471837 -36.6875 196.4375 C-36.72166016 197.26443359 -36.75582031 198.09136719 -36.79101562 198.94335938 C-36.87268621 200.96178944 -36.93803724 202.98086884 -37 205 C-40.34430737 204.27633685 -42.34262343 203.18284504 -45 201 C-45 200.34 -45 199.68 -45 199 C-45.88751953 198.61134766 -45.88751953 198.61134766 -46.79296875 198.21484375 C-56.1690916 193.05382746 -63.38431681 179.51975055 -66.33203125 169.62109375 C-68.98281826 155.25103783 -67.47061973 143.01827065 -61 130 C-61 129.67 -61 129.34 -61 129 C-63.94033413 134.57765673 -66.53012914 139.85326729 -68 146 C-68.99 146 -69.98 146 -71 146 C-73.7079821 134.32318118 -72.21295625 123.07604171 -66.6484375 112.57421875 C-58.43967854 99.75532739 -44.49966204 93.3653551 -31.51953125 86.41796875 C-27.52778483 84.171451 -23.75694443 81.61594649 -20 79 C-17.69469049 80.78601304 -17.04902002 81.68301372 -16.59594727 84.61279297 C-16.58132446 86.16184326 -16.58132446 86.16184326 -16.56640625 87.7421875 C-16.55496582 88.88502197 -16.54352539 90.02785645 -16.53173828 91.20532227 C-16.54188965 92.41631592 -16.55204102 93.62730957 -16.5625 94.875 C-16.57007324 96.103396 -16.57764648 97.33179199 -16.58544922 98.59741211 C-16.73966224 107.06280666 -17.25087918 114.29152729 -21 122 C-21.42410156 122.89203125 -21.84820312 123.7840625 -22.28515625 124.703125 C-27.94713026 135.23849726 -36.98097661 141.70243217 -48 146 C-49.98962246 146.39052984 -51.98904701 146.7408105 -54 147 C-55.79341438 142.83326479 -54.01173384 139.25336659 -52.5625 135.25 C-52.19801758 134.20392578 -52.19801758 134.20392578 -51.82617188 133.13671875 C-51.22689752 131.42114902 -50.61470115 129.71010285 -50 128 C-51.63079248 129.63079248 -52.16114818 131.74703032 -53 133.875 C-53.350625 134.75929687 -53.70125 135.64359375 -54.0625 136.5546875 C-55.59192038 140.54392566 -56.24219208 143.93198055 -56.5625 148.1875 C-56.64628906 149.27417969 -56.73007812 150.36085937 -56.81640625 151.48046875 C-56.87699219 152.31191406 -56.93757813 153.14335937 -57 154 C-40.10010036 148.40327999 -25.3570696 141.40846655 -16.6875 125.0625 C-12.17538627 116.07535841 -11.69921675 107.47776594 -11.8125 97.5625 C-11.81314453 96.49451172 -11.81378906 95.42652344 -11.81445312 94.32617188 C-11.8464126 88.5130976 -12.13096994 82.8967508 -13.02587891 77.14868164 C-12.97747938 73.13015137 -10.58592462 70.90128128 -8 68 C-7.34 68 -6.68 68 -6 68 C-5.73058594 67.28972656 -5.46117187 66.57945312 -5.18359375 65.84765625 C-3.97174075 62.93200993 -2.5508693 60.22109144 -1.0625 57.4375 C7.485993 40.19420727 6.88689609 21.96803626 1 4 C0.65246421 2.67029787 0.31167492 1.33856178 0 0 Z M-45 116 C-44 118 -44 118 -44 118 Z M-47 119 C-46 121 -46 121 -46 121 Z M-48 121 C-48.33 122.32 -48.66 123.64 -49 125 C-48.34 123.68 -47.68 122.36 -47 121 C-47.33 121 -47.66 121 -48 121 Z M-59 124 C-58.67 124.66 -58.34 125.32 -58 126 C-57.67 125.34 -57.34 124.68 -57 124 C-57.66 124 -58.32 124 -59 124 Z " fill="#FAFAFA" transform="translate(316,105)"/>
<path d="M0 0 C0.99 0.495 0.99 0.495 2 1 C4.26654892 16.29920518 2.84504329 30.75296283 -6.2265625 43.65234375 C-20.72223188 62.84154485 -40.8527223 71.64753371 -62.66040039 80.30834961 C-72.43027743 84.27376345 -81.94133298 89.27408178 -90.921875 94.796875 C-93 96 -93 96 -95 96 C-95 96.66 -95 97.32 -95 98 C-100.75 102 -100.75 102 -103 102 C-103 102.66 -103 103.32 -103 104 C-104.43359375 105.33984375 -104.43359375 105.33984375 -106.4375 106.9375 C-113.09677916 112.58959281 -118.66376957 119.42185597 -123 127 C-123.99 126.67 -124.98 126.34 -126 126 C-125.42519096 110.04904907 -120.10809321 96.96151726 -111 84 C-110.34 84 -109.68 84 -109 84 C-108.74863281 83.41734375 -108.49726563 82.8346875 -108.23828125 82.234375 C-99.56463629 66.58350775 -73.86902254 58.0658467 -57.97265625 52.13671875 C-47.15727973 48.00100973 -35.26951822 42.96797497 -26 36 C-25.34 36 -24.68 36 -24 36 C-24 35.34 -24 34.68 -24 34 C-22.49609375 32.5546875 -22.49609375 32.5546875 -20.4375 30.875 C-11.22222561 22.9948007 -5.06242949 14.41836851 -1.578125 2.75 C-1 1 -1 1 0 0 Z " fill="#F9F9F9" transform="translate(285,93)"/>
<path d="M0 0 C-0.14433868 1.35432679 -0.29056661 2.70845225 -0.4375 4.0625 C-0.51871094 4.81660156 -0.59992188 5.57070312 -0.68359375 6.34765625 C-0.91528357 8.28984619 -1.20026739 10.22587918 -1.515625 12.15625 C-4.50730622 35.8966881 0.23952785 56.89725358 14.375 76.25 C15.34566406 77.49523437 15.34566406 77.49523437 16.3359375 78.765625 C17.84134472 80.7869699 18.96089398 82.71186755 20 85 C20.66 85 21.32 85 22 85 C22 85.66 22 86.32 22 87 C22.66 87 23.32 87 24 87 C24 87.66 24 88.32 24 89 C24.66 89 25.32 89 26 89 C26 89.66 26 90.32 26 91 C26.66 91 27.32 91 28 91 C28 91.66 28 92.32 28 93 C28.58861816 93.26482178 29.17723633 93.52964355 29.78369141 93.80249023 C33.58310423 95.85537852 36.3539047 99.01660826 39.375 102.0625 C40.38373169 103.07642822 40.38373169 103.07642822 41.4128418 104.11083984 C51.27112099 114.18722789 56.27617748 123.21433696 56.16796875 137.51953125 C55.93738502 140.92466306 55.11878193 143.78350194 54 147 C53.01 147 52.02 147 51 147 C50.84144531 146.28714844 50.68289063 145.57429687 50.51953125 144.83984375 C48.95827358 138.43092414 47.06709846 134.16631426 43 129 C43 128.34 43 127.68 43 127 C42.34 127 41.68 127 41 127 C41 126.34 41 125.68 41 125 C40.34 125 39.68 125 39 125 C39 124.34 39 123.68 39 123 C38.48953125 122.7628125 37.9790625 122.525625 37.453125 122.28125 C34.10627824 120.53321539 30.9400189 118.51485014 27.75 116.5 C23.43417881 113.77638974 19.11837371 111.05950817 14.7421875 108.43359375 C-2.70526645 97.90764741 -15.7497293 85.51912022 -21.8125 65.5625 C-25.84954236 47.57082567 -22.80079571 30.22870604 -13.54296875 14.40234375 C-4.29268293 0 -4.29268293 0 0 0 Z " fill="#F8F8F8" transform="translate(208,245)"/>
<path d="M0 0 C0.99 0.33 1.98 0.66 3 1 C-2.75 5.875 -2.75 5.875 -5 7 C-5 7.66 -5 8.32 -5 9 C-5.66 9 -6.32 9 -7 9 C-7.66 10.32 -8.32 11.64 -9 13 C-9.66 12.67 -10.32 12.34 -11 12 C-7.72469104 7.36279281 -4.69564393 3.31457218 0 0 Z " fill="#E3E1E2" transform="translate(271,213)"/>
<path d="M0 0 C0.99 0.33 1.98 0.66 3 1 C0.36 3.64 -2.28 6.28 -5 9 C-5.33 8.01 -5.66 7.02 -6 6 C-4.02 4.02 -2.04 2.04 0 0 Z " fill="#EDEDED" transform="translate(182,169)"/>
<path d="M0 0 C0.66 0.33 1.32 0.66 2 1 C2 1.66 2 2.32 2 3 C2.66 3.33 3.32 3.66 4 4 C1.525 5.485 1.525 5.485 -1 7 C-1.66 6.34 -2.32 5.68 -3 5 C-2.01 3.35 -1.02 1.7 0 0 Z " fill="#F1F1EC" transform="translate(267,402)"/>
<path d="M0 0 C0.66 0 1.32 0 2 0 C0.8141763 3.37503669 -0.27573689 5.64722731 -3 8 C-2.45276317 4.62537285 -1.9451 2.91765 0 0 Z " fill="#E2E1E1" transform="translate(286,385)"/>
<path d="M0 0 C1 3 1 3 0 6 C-0.99 6 -1.98 6 -3 6 C-3 4.35 -3 2.7 -3 1 C-2.01 0.67 -1.02 0.34 0 0 Z " fill="#E4E3E4" transform="translate(248,245)"/>
</svg>
